<svg xmlns="http://www.w3.org/2000/svg" width="2465" height="2500" viewBox="0 0 390.613 396.154">
    <path d="M379.374 240.131a187.047 187.047 0 0 0 4.313-39.977c0-102.89-83.411-186.302-186.305-186.302-10.863 0-21.507.939-31.861 2.725C148.872 6.089 129.173 0 108.041 0 48.371 0 0 48.375 0 108.04c0 19.945 5.427 38.613 14.851 54.648a187.158 187.158 0 0 0-3.77 37.467c0 102.892 83.409 186.304 186.303 186.304 11.654 0 23.054-1.079 34.113-3.126 15.21 8.175 32.599 12.821 51.074 12.821 59.673 0 108.042-48.371 108.042-108.041.001-17.239-4.056-33.523-11.239-47.982z" fill="#00aaf1" />
    <linearGradient id="a" gradientUnits="userSpaceOnUse" x1="-850.622" y1="1134.9" x2="-850.622" y2="1501.605" gradientTransform="matrix(1 0 0 -1 1045.93 1516.33)">
        <stop offset="0" stop-color="#fff" />
        <stop offset=".065" stop-color="#cdeefc" />
        <stop offset=".136" stop-color="#9ddefa" />
        <stop offset=".211" stop-color="#73d0f7" />
        <stop offset=".29" stop-color="#4fc4f5" />
        <stop offset=".372" stop-color="#33bbf4" />
        <stop offset=".459" stop-color="#1cb3f3" />
        <stop offset=".554" stop-color="#0caef2" />
        <stop offset=".661" stop-color="#03abf1" />
        <stop offset=".809" stop-color="#00aaf1" />
    </linearGradient>
    <path d="M14.724 108.04c0 16.6 4.434 32.915 12.822 47.188l2.861 4.872-1.13 5.535a172.91 172.91 0 0 0-3.473 34.521c0 94.607 76.97 171.579 171.579 171.579 10.531 0 21.105-.969 31.434-2.879l5.092-.943 4.561 2.451c13.47 7.238 28.721 11.065 44.104 11.065 51.456 0 93.318-41.861 93.318-93.315 0-14.53-3.265-28.471-9.703-41.432l-2.304-4.638 1.105-5.06a172.661 172.661 0 0 0 3.976-36.83c0-94.609-76.971-171.578-171.581-171.578-9.819 0-19.698.844-29.359 2.51l-5.567.959-4.781-3.011a93.007 93.007 0 0 0-49.635-14.311c-51.458.002-93.319 41.861-93.319 93.317z" fill="url(#a)" />
    <linearGradient id="b" gradientUnits="userSpaceOnUse" x1="-1031.206" y1="1387.811" x2="-681.601" y2="1387.811" gradientTransform="matrix(1 0 0 -1 1045.93 1516.33)">
        <stop offset="0" stop-color="#fff" />
        <stop offset="1" stop-color="#00aaf1" />
    </linearGradient>
    <path d="M30.407 160.099l-1.13 5.535a172.91 172.91 0 0 0-3.473 34.521 171.27 171.27 0 0 0 5.256 42.16c84.403-39.889 194.074-72.71 333.269-81.639-17.886-75.633-85.924-132.1-166.945-132.1-9.819 0-19.698.844-29.359 2.51l-5.567.959-4.781-3.011a93.007 93.007 0 0 0-49.635-14.311c-51.455 0-93.317 41.859-93.317 93.314 0 16.6 4.434 32.915 12.822 47.188l2.86 4.874z" opacity=".83" fill="url(#b)" />
    <path d="M141.483 77.685c-15.665 5.793-27.832 14.24-36.163 25.105-8.394 10.943-12.65 23.628-12.65 37.702 0 14.766 4.056 27.327 12.056 37.337 7.876 9.861 18.646 17.74 32.004 23.423 13.065 5.556 29.492 10.472 48.826 14.613 14.218 2.977 25.713 5.823 34.182 8.463 8.121 2.532 14.81 6.222 19.878 10.963 4.843 4.535 7.195 10.315 7.195 17.672 0 9.31-4.509 16.912-13.788 23.246-9.498 6.485-22.124 9.774-37.525 9.774-11.201 0-20.306-1.621-27.06-4.819-6.714-3.175-11.972-7.239-15.625-12.076-3.801-5.03-7.402-11.414-10.704-18.975-2.955-6.945-6.634-12.322-10.923-15.956-4.488-3.794-10.01-5.717-16.411-5.717-7.799 0-14.339 2.434-19.442 7.233-5.156 4.845-7.771 10.763-7.771 17.59 0 10.923 4.014 22.249 11.928 33.664 7.835 11.302 18.156 20.459 30.675 27.22 17.51 9.289 39.944 13.995 66.701 13.995 22.294 0 41.883-3.442 58.222-10.233 16.497-6.86 29.23-16.523 37.85-28.721 8.649-12.242 13.035-26.23 13.035-41.576 0-12.826-2.548-23.864-7.575-32.808-5.014-8.909-12.08-16.372-21.004-22.184-8.742-5.688-19.465-10.585-31.87-14.556-12.253-3.916-26.109-7.542-41.187-10.778-11.912-2.753-20.602-4.882-25.779-6.319-5.053-1.396-10.099-3.352-14.996-5.813-4.721-2.362-8.455-5.201-11.103-8.435-2.501-3.052-3.717-6.601-3.717-10.845 0-6.921 3.777-12.763 11.549-17.858 8.062-5.288 18.924-7.968 32.279-7.968 14.379 0 24.844 2.417 31.104 7.179 6.45 4.902 12.074 11.862 16.72 20.688 4.014 6.913 7.632 11.718 11.118 14.8 3.748 3.319 9.146 5.003 16.047 5.003 7.595 0 14.032-2.69 19.134-7.996 5.071-5.271 7.645-11.32 7.645-17.978 0-6.917-1.962-14.068-5.828-21.252-3.826-7.114-9.922-13.964-18.114-20.364-8.135-6.355-18.487-11.519-30.768-15.344-12.21-3.796-26.838-5.72-43.478-5.72-20.814.003-39.205 2.903-54.667 8.621z" fill="#fff" stroke="#00aaf1" />
</svg>